<svg xmlns="http://www.w3.org/2000/svg" width="1672" height="941" viewBox="0 0 1672 941" role="img" aria-labelledby="title desc">
  <title id="title">AIgent Vision — mechanical pass is not design complete</title>
  <desc id="desc">A polished before, evidence, and after case study showing how structured visual review replaced five competing mobile theme controls with one compact selector.</desc>
  <defs>
    <linearGradient id="ground" x1="0" y1="0" x2="1" y2="1">
      <stop offset="0" stop-color="#020706"/>
      <stop offset="0.56" stop-color="#06110f"/>
      <stop offset="1" stop-color="#020706"/>
    </linearGradient>
    <pattern id="grid" width="52" height="52" patternUnits="userSpaceOnUse">
      <path d="M52 0H0V52" fill="none" stroke="#65f4df" stroke-opacity="0.052"/>
    </pattern>
    <filter id="phoneShadow" x="-35%" y="-25%" width="170%" height="170%">
      <feDropShadow dx="0" dy="18" stdDeviation="18" flood-color="#000" flood-opacity="0.68"/>
    </filter>
    <filter id="softGlow" x="-100%" y="-100%" width="300%" height="300%">
      <feGaussianBlur stdDeviation="6" result="b"/>
      <feMerge><feMergeNode in="b"/><feMergeNode in="SourceGraphic"/></feMerge>
    </filter>
  </defs>

  <rect width="1672" height="941" fill="url(#ground)"/>
  <rect width="1672" height="941" fill="url(#grid)"/>
  <rect x="62" y="54" width="1548" height="824" fill="none" stroke="#65f4df" stroke-opacity="0.16"/>
  <path d="M62 82V54h28M1582 54h28v28M62 850v28h28M1582 878h28v-28" fill="none" stroke="#65f4df" stroke-opacity="0.52"/>

  <text x="96" y="42" fill="#9aa5a0" font-family="ui-monospace, SFMono-Regular, Menlo, monospace" font-size="16" font-weight="700" letter-spacing="5">DOGFOOD / <tspan fill="#65f4df">AIGENT VISION</tspan></text>
  <g font-family="Arial Narrow, Helvetica Neue, Arial, sans-serif" font-weight="900" letter-spacing="-2">
    <text x="96" y="132" fill="#f5f2ea" font-size="68">Mechanical pass </text>
    <text x="692" y="132" fill="#f07a52" font-size="68">≠</text>
    <text x="750" y="132" fill="#f5f2ea" font-size="68"> design complete.</text>
  </g>
  <text x="98" y="178" fill="#c3cbc7" font-family="Helvetica Neue, Arial, sans-serif" font-size="21">Visual review found a hierarchy issue Resolve missed — and fixed the shared cause.</text>

  <g font-family="ui-monospace, SFMono-Regular, Menlo, monospace" font-size="15" font-weight="700" letter-spacing="3">
    <circle cx="112" cy="228" r="5" fill="#f07a52"/><text x="132" y="234" fill="#f07a52">BEFORE</text><path d="M228 228H428" stroke="#f07a52" stroke-opacity="0.55"/>
    <circle cx="598" cy="228" r="5" fill="#65f4df"/><text x="618" y="234" fill="#65f4df">EVIDENCE</text><path d="M738 228H1046" stroke="#65f4df" stroke-opacity="0.55"/>
    <circle cx="1178" cy="228" r="5" fill="#65f4df"/><text x="1198" y="234" fill="#65f4df">AFTER</text><path d="M1288 228H1556" stroke="#65f4df" stroke-opacity="0.55"/>
  </g>

  <!-- BEFORE PHONE -->
  <g transform="translate(94 250)" filter="url(#phoneShadow)">
    <rect width="338" height="558" rx="50" fill="#111715" stroke="#6d7772" stroke-width="4"/>
    <rect x="12" y="12" width="314" height="534" rx="40" fill="#050b09" stroke="#1b2421"/>
    <rect x="118" y="14" width="102" height="20" rx="10" fill="#020504"/>
    <text x="36" y="64" fill="#f5f2ea" font-family="ui-monospace, monospace" font-size="12" font-weight="700" letter-spacing="1.5">CINEMATIC SYSTEM</text>
    <g font-family="Helvetica Neue, Arial, sans-serif" font-size="11" font-weight="600" text-anchor="middle">
      <rect x="34" y="84" width="122" height="30" rx="15" fill="#090d0c" stroke="#f07a52"/><text x="95" y="104" fill="#f5f2ea">Graphite</text>
      <rect x="174" y="84" width="122" height="30" rx="15" fill="#090d0c" stroke="#f07a52"/><text x="235" y="104" fill="#f5f2ea">AIgent</text>
      <rect x="34" y="122" width="122" height="30" rx="15" fill="#090d0c" stroke="#f07a52"/><text x="95" y="142" fill="#f5f2ea">Ember</text>
      <rect x="174" y="122" width="122" height="30" rx="15" fill="#090d0c" stroke="#f07a52"/><text x="235" y="142" fill="#f5f2ea">Cobalt</text>
      <rect x="104" y="160" width="122" height="30" rx="15" fill="#090d0c" stroke="#f07a52"/><text x="165" y="180" fill="#f5f2ea">Paper</text>
    </g>
    <text x="36" y="220" fill="#f07a52" font-family="ui-monospace, monospace" font-size="10" font-weight="700" letter-spacing="1">EXPERIENCE SURFACE · NATIVE CSS +</text>
    <text x="36" y="237" fill="#f07a52" font-family="ui-monospace, monospace" font-size="10" font-weight="700" letter-spacing="1">JAVASCRIPT</text>
    <g font-family="Arial Narrow, Helvetica Neue, Arial, sans-serif" font-size="42" font-weight="900" letter-spacing="-1">
      <text x="36" y="292" fill="#f5f2ea">A cinematic</text>
      <text x="36" y="336" fill="#f5f2ea">page needs</text>
      <text x="36" y="380" fill="#f07a52">a point</text>
      <text x="36" y="424" fill="#f07a52">of view.</text>
    </g>
    <text x="36" y="462" fill="#b9c1bd" font-family="Helvetica Neue, Arial, sans-serif" font-size="12">This starter separates the reusable</text>
    <text x="36" y="480" fill="#b9c1bd" font-family="Helvetica Neue, Arial, sans-serif" font-size="12">mechanics from the visual world.</text>
    <rect x="36" y="505" width="266" height="40" rx="6" fill="#ef7148"/>
    <text x="169" y="530" fill="#120907" font-family="Helvetica Neue, Arial, sans-serif" font-size="12" font-weight="800" text-anchor="middle">Use the system</text>
  </g>
  <text x="263" y="843" fill="#f5f2ea" font-family="Helvetica Neue, Arial, sans-serif" font-size="19" text-anchor="middle">Five theme controls</text>
  <text x="263" y="870" fill="#aab4af" font-family="Helvetica Neue, Arial, sans-serif" font-size="19" text-anchor="middle">compete with the hero.</text>

  <!-- EVIDENCE PHONE -->
  <g transform="translate(578 250)" filter="url(#phoneShadow)">
    <rect width="338" height="558" rx="50" fill="#111715" stroke="#6d7772" stroke-width="4"/>
    <rect x="12" y="12" width="314" height="534" rx="40" fill="#050b09" stroke="#1b2421"/>
    <rect x="118" y="14" width="102" height="20" rx="10" fill="#020504"/>
    <text x="36" y="64" fill="#f5f2ea" font-family="ui-monospace, monospace" font-size="12" font-weight="700" letter-spacing="1.5">CINEMATIC SYSTEM</text>
    <g font-family="Helvetica Neue, Arial, sans-serif" font-size="11" font-weight="600" text-anchor="middle">
      <rect x="34" y="84" width="122" height="30" rx="15" fill="#090d0c" stroke="#f07a52"/><text x="95" y="104" fill="#f5f2ea">Graphite</text>
      <rect x="174" y="84" width="122" height="30" rx="15" fill="#090d0c" stroke="#f07a52"/><text x="235" y="104" fill="#f5f2ea">AIgent</text>
      <rect x="34" y="122" width="122" height="30" rx="15" fill="#090d0c" stroke="#f07a52"/><text x="95" y="142" fill="#f5f2ea">Ember</text>
      <rect x="174" y="122" width="122" height="30" rx="15" fill="#090d0c" stroke="#f07a52"/><text x="235" y="142" fill="#f5f2ea">Cobalt</text>
      <rect x="104" y="160" width="122" height="30" rx="15" fill="#090d0c" stroke="#f07a52"/><text x="165" y="180" fill="#f5f2ea">Paper</text>
    </g>
    <text x="36" y="220" fill="#f07a52" font-family="ui-monospace, monospace" font-size="10" font-weight="700" letter-spacing="1">EXPERIENCE SURFACE · NATIVE CSS +</text>
    <text x="36" y="237" fill="#f07a52" font-family="ui-monospace, monospace" font-size="10" font-weight="700" letter-spacing="1">JAVASCRIPT</text>
    <g font-family="Arial Narrow, Helvetica Neue, Arial, sans-serif" font-size="42" font-weight="900" letter-spacing="-1">
      <text x="36" y="292" fill="#f5f2ea">A cinematic</text>
      <text x="36" y="336" fill="#f5f2ea">page needs</text>
      <text x="36" y="380" fill="#f07a52">a point</text>
      <text x="36" y="424" fill="#f07a52">of view.</text>
    </g>
    <text x="36" y="462" fill="#b9c1bd" font-family="Helvetica Neue, Arial, sans-serif" font-size="12">This starter separates the reusable</text>
    <text x="36" y="480" fill="#b9c1bd" font-family="Helvetica Neue, Arial, sans-serif" font-size="12">mechanics from the visual world.</text>
    <rect x="36" y="505" width="266" height="40" rx="6" fill="#ef7148"/>
    <text x="169" y="530" fill="#120907" font-family="Helvetica Neue, Arial, sans-serif" font-size="12" font-weight="800" text-anchor="middle">Use the system</text>

    <g fill="none" stroke="#65f4df" stroke-width="2">
      <rect x="25" y="74" width="288" height="126"/>
      <rect x="25" y="248" width="288" height="190"/>
      <rect x="25" y="496" width="288" height="58"/>
    </g>
    <g font-family="ui-monospace, monospace" font-size="10" font-weight="700">
      <rect x="286" y="78" width="54" height="24" rx="4" fill="#071411" stroke="#65f4df"/><text x="313" y="95" fill="#65f4df" text-anchor="middle">E001</text>
      <rect x="286" y="252" width="54" height="24" rx="4" fill="#071411" stroke="#65f4df"/><text x="313" y="269" fill="#65f4df" text-anchor="middle">E002</text>
      <rect x="286" y="500" width="54" height="24" rx="4" fill="#071411" stroke="#65f4df"/><text x="313" y="517" fill="#65f4df" text-anchor="middle">E003</text>
    </g>
  </g>

  <!-- evidence callouts -->
  <g font-family="Helvetica Neue, Arial, sans-serif" font-size="15" fill="#d7ddda">
    <path d="M918 333H952" stroke="#65f4df" stroke-width="2"/><text x="965" y="327">Five peer controls create</text><text x="965" y="350">visual competition and</text><text x="965" y="373">fragment focus.</text>
    <path d="M918 505H952" stroke="#65f4df" stroke-width="2"/><text x="965" y="499">Hero copy loses clear</text><text x="965" y="522">dominance against the</text><text x="965" y="545">crowded controls.</text>
    <path d="M918 742H952" stroke="#65f4df" stroke-width="2"/><text x="965" y="736">Primary action competes</text><text x="965" y="759">for attention.</text>
  </g>

  <!-- arrows -->
  <g filter="url(#softGlow)">
    <path d="M468 500H542" stroke="#f07a52" stroke-width="3"/><path d="M542 500l-18-12v24z" fill="#f07a52"/>
    <path d="M1092 500H1150" stroke="#65f4df" stroke-width="3"/><path d="M1150 500l-18-12v24z" fill="#65f4df"/>
  </g>

  <!-- AFTER PHONE -->
  <g transform="translate(1174 250)" filter="url(#phoneShadow)">
    <rect width="338" height="558" rx="50" fill="#111715" stroke="#6d7772" stroke-width="4"/>
    <rect x="12" y="12" width="314" height="534" rx="40" fill="#050b09" stroke="#1b2421"/>
    <rect x="118" y="14" width="102" height="20" rx="10" fill="#020504"/>
    <text x="36" y="64" fill="#f5f2ea" font-family="ui-monospace, monospace" font-size="12" font-weight="700" letter-spacing="1.5">CINEMATIC SYSTEM</text>
    <rect x="220" y="40" width="88" height="34" rx="17" fill="#090d0c" stroke="#c5cbc8"/>
    <text x="264" y="62" fill="#f5f2ea" font-family="Helvetica Neue, Arial, sans-serif" font-size="11" font-weight="600" text-anchor="middle">Graphite⌄</text>
    <text x="36" y="132" fill="#f07a52" font-family="ui-monospace, monospace" font-size="10" font-weight="700" letter-spacing="1">EXPERIENCE SURFACE · NATIVE CSS +</text>
    <text x="36" y="149" fill="#f07a52" font-family="ui-monospace, monospace" font-size="10" font-weight="700" letter-spacing="1">JAVASCRIPT</text>
    <g font-family="Arial Narrow, Helvetica Neue, Arial, sans-serif" font-size="42" font-weight="900" letter-spacing="-1">
      <text x="36" y="222" fill="#f5f2ea">A cinematic</text>
      <text x="36" y="266" fill="#f5f2ea">page needs</text>
      <text x="36" y="310" fill="#f07a52">a point</text>
      <text x="36" y="354" fill="#f07a52">of view.</text>
    </g>
    <text x="36" y="405" fill="#b9c1bd" font-family="Helvetica Neue, Arial, sans-serif" font-size="12">This starter separates the reusable</text>
    <text x="36" y="423" fill="#b9c1bd" font-family="Helvetica Neue, Arial, sans-serif" font-size="12">mechanics from the visual world.</text>
    <rect x="36" y="462" width="266" height="42" rx="6" fill="#ef7148"/>
    <text x="169" y="488" fill="#120907" font-family="Helvetica Neue, Arial, sans-serif" font-size="12" font-weight="800" text-anchor="middle">Use the system</text>
    <rect x="36" y="514" width="266" height="34" rx="5" fill="#060908" stroke="#26302d"/>
    <text x="169" y="536" fill="#e8e7e2" font-family="Helvetica Neue, Arial, sans-serif" font-size="11" font-weight="600" text-anchor="middle">Read the guide</text>
  </g>
  <text x="1343" y="843" fill="#f5f2ea" font-family="Helvetica Neue, Arial, sans-serif" font-size="19" text-anchor="middle">One <tspan fill="#65f4df">native selector</tspan></text>
  <text x="1343" y="870" fill="#aab4af" font-family="Helvetica Neue, Arial, sans-serif" font-size="19" text-anchor="middle">restores hierarchy.</text>

  <!-- findings summary -->
  <g transform="translate(480 790)">
    <rect width="284" height="104" rx="17" fill="#0b0f0e" stroke="#f07a52" stroke-opacity="0.72"/>
    <circle cx="48" cy="52" r="25" fill="none" stroke="#f07a52" stroke-width="2"/><circle cx="46" cy="48" r="9" fill="none" stroke="#f07a52" stroke-width="2"/><path d="M53 55l12 12" stroke="#f07a52" stroke-width="2"/>
    <text x="88" y="34" fill="#f07a52" font-family="ui-monospace, monospace" font-size="13" font-weight="700" letter-spacing="2">FOUND</text>
    <text x="88" y="59" fill="#f5f2ea" font-family="Helvetica Neue, Arial, sans-serif" font-size="14">Five controls compete</text>
    <text x="88" y="80" fill="#f5f2ea" font-family="Helvetica Neue, Arial, sans-serif" font-size="14">with the hero.</text>
  </g>
  <g transform="translate(786 790)">
    <rect width="300" height="104" rx="17" fill="#07110f" stroke="#65f4df" stroke-opacity="0.72"/>
    <circle cx="48" cy="52" r="25" fill="none" stroke="#65f4df" stroke-width="2"/><path d="M36 52l8 9 17-20" fill="none" stroke="#65f4df" stroke-width="2.5"/>
    <text x="88" y="34" fill="#65f4df" font-family="ui-monospace, monospace" font-size="13" font-weight="700" letter-spacing="2">FIXED</text>
    <text x="88" y="59" fill="#f5f2ea" font-family="Helvetica Neue, Arial, sans-serif" font-size="14">One selector restores</text>
    <text x="88" y="80" fill="#f5f2ea" font-family="Helvetica Neue, Arial, sans-serif" font-size="14">hierarchy and focus.</text>
  </g>
</svg>
